<svg width="480" height="480" viewBox="0 0 480 480" fill="none" xmlns="http://www.w3.org/2000/svg">
<rect width="480" height="480" rx="50" fill="#151D2A" style="fill:#151D2A;fill:color(display-p3 0.0824 0.1137 0.1647);fill-opacity:1;"/>
<path d="M188.169 306.299C192.503 302.041 194.919 296.882 196.73 291.159C200.743 278.471 202.566 264.742 204.629 251.632C208.637 226.153 211.513 200.404 214.951 174.833C217.577 155.297 220.148 135.349 225.876 116.427C229.217 105.391 234.36 93.37 245.184 87.869C251.991 84.409 261.605 83.682 268.809 86.295C278.53 89.822 283.514 100.574 286.758 109.631C293.48 128.398 295.707 149.305 298.136 169.041C300.024 183.867 301.761 198.711 303.347 213.573L312.661 291.979C314.111 304.452 317.435 336.426 322.789 346.601C323.374 347.713 323.685 348.2 324.932 348.549C327.87 346.408 329.299 340.072 330.286 336.644C333.606 325.12 335.787 313.443 337.637 301.603C340.713 281.921 344.628 230.244 356.881 216.228C360.079 212.57 365.557 210.231 370.384 210.178C383.501 210.034 393.17 224.388 401.527 232.806C401.369 245.288 401.349 257.77 401.467 270.251C389.828 267.845 385.784 262.774 377.637 254.76C372.517 265.183 371.439 278.55 369.711 289.934C367.395 305.411 364.903 320.859 362.236 336.278C359.894 350.153 358.021 365.232 352.663 378.323C350.698 383.123 347.628 388.048 343.785 391.573C343.444 391.883 343.096 392.184 342.742 392.477C342.386 392.77 342.024 393.054 341.655 393.329C341.286 393.604 340.911 393.87 340.529 394.127C340.147 394.384 339.758 394.632 339.364 394.869C338.97 395.107 338.57 395.335 338.165 395.554C337.759 395.772 337.349 395.98 336.934 396.179C336.518 396.377 336.098 396.565 335.674 396.743C335.249 396.92 334.82 397.087 334.388 397.244C333.954 397.401 333.518 397.548 333.078 397.683C332.638 397.818 332.195 397.943 331.749 398.057C331.303 398.17 330.854 398.273 330.404 398.365C329.952 398.457 329.499 398.538 329.044 398.608C328.589 398.677 328.133 398.736 327.675 398.783C327.217 398.83 326.758 398.867 326.298 398.892C325.838 398.917 325.378 398.93 324.918 398.933C324.458 398.936 323.998 398.927 323.538 398.907C313.235 398.446 305.757 392.204 300.959 383.523C291.047 365.59 288.463 332.681 285.641 312.102C281.755 284.165 278.078 256.199 274.612 228.206C271.698 203.754 269.492 178.866 264.556 154.731C263.305 148.615 261.801 138.939 257.507 134.221L256.616 134.438C247.467 146.564 242.955 194.082 240.699 210.69C238.83 224.623 236.853 238.54 234.767 252.442C231.552 273.467 228.28 294.872 222.882 315.458C219.922 326.749 215.382 343.888 204.401 349.978C197.128 354.012 183.768 353.933 175.953 351.52C169.985 349.676 165.767 345.151 162.6 339.956C149.412 318.316 141.284 261.126 136.696 234.641C134.802 223.713 133.155 208.313 128.022 198.541C127.93 198.366 127.834 198.193 127.74 198.019C121.059 217.478 118.211 239.052 104.456 255.319C97.0858 264.034 85.5218 269.412 74.1918 270.315C65.0388 271.045 51.4708 272.291 44.2508 265.755C41.5758 263.333 40.1378 260.162 40.0108 256.562C39.8658 252.478 41.1778 247.916 44.0588 244.929C49.8918 238.883 59.3308 240.742 66.8718 240.37C71.5818 240.138 76.1228 238.77 79.6088 235.478C94.9198 221.019 92.7068 178.276 109.671 159.893C114.577 154.577 120.398 151.506 127.714 151.293C174.309 149.937 162.293 282.144 188.169 306.299Z" fill="#F0F0EF" style="fill:#F0F0EF;fill:color(display-p3 0.9412 0.9412 0.9373);fill-opacity:1;"/>
<path d="M401.581 118.599L401.527 233.806C401.369 246.287 401.349 258.769 401.467 271.251L401.58 367.231L401.565 393.18C401.512 398.246 401.03 403.658 401.663 408.685C402.105 412.193 403.28 415.524 405.814 418.073C408.427 420.701 412.312 421.96 415.972 421.821C419.477 421.689 422.907 419.652 425.2 417.048C427.315 414.648 427.972 411.593 428.287 408.494C428.782 403.624 428.445 398.481 428.411 393.582C428.321 384.746 428.291 375.91 428.322 367.073L428.319 241.446L428.367 128.121L428.376 90.767C428.376 83.718 428.784 76.396 427.997 69.397C427.681 66.582 426.782 64.073 424.873 61.937C422.504 59.286 419.158 58.059 415.652 58.003C412.159 57.947 408.32 58.656 405.753 61.195C403.227 63.693 402.127 67.213 401.689 70.657C400.995 76.117 401.549 81.989 401.568 87.498L401.581 118.599Z" fill="#4CB3B5" style="fill:#4CB3B5;fill:color(display-p3 0.2980 0.7020 0.7098);fill-opacity:1;"/>
</svg>
